<?xml version="1.0" standalone="no"?><svg xmlns:xlink="http://www.w3.org/1999/xlink" xmlns="http://www.w3.org/2000/svg" viewBox="0 0 1000 999.9999999999999" preserveAspectRatio="xMaxYMax slice"><g transform="scale(2.5188916876574305)"><rect x="0" y="0" width="397" height="397" fill="#ffffff"/><circle cx="11.025" cy="11.025" r="2.205" fill="#dd87ff"/><circle cx="33.085" cy="11.025" r="2.205" fill="#f4d9ff"/><circle cx="55.135" cy="11.025" r="2.205" fill="#fbf1ff"/><circle cx="77.195" cy="11.025" r="2.205" fill="#6e6e6e"/><circle cx="99.245" cy="11.025" r="2.205" fill="#dbdbdb"/><circle cx="121.30499999999999" cy="11.025" r="2.205" fill="#edbeff"/><circle cx="143.365" cy="11.025" r="2.205" fill="#ebb9ff"/><circle cx="165.41500000000002" cy="11.025" r="2.205" fill="#a6a6a6"/><circle cx="187.47500000000002" cy="11.025" r="2.205" fill="#5a5a5a"/><circle cx="209.525" cy="11.025" r="2.205" fill="#6c6c6c"/><circle cx="231.585" cy="11.025" r="2.205" fill="#959595"/><circle cx="253.63500000000002" cy="11.025" r="2.205" fill="#cb48ff"/><circle cx="275.695" cy="11.025" r="2.205" fill="#e29aff"/><circle cx="297.745" cy="11.025" r="2.205" fill="#484848"/><circle cx="319.805" cy="11.025" r="2.205" fill="#faeeff"/><circle cx="341.865" cy="11.025" r="2.205" fill="#ebb8ff"/><circle cx="363.91499999999996" cy="11.025" r="2.205" fill="#ecbcff"/><circle cx="385.97499999999997" cy="11.025" r="2.205" fill="#444444"/><circle cx="11.025" cy="33.085" r="2.205" fill="#e093ff"/><circle cx="33.085" cy="33.085" r="2.205" fill="#888888"/><circle cx="55.135" cy="33.085" r="2.205" fill="#a1a1a1"/><circle cx="77.195" cy="33.085" r="2.205" fill="#919191"/><circle cx="99.245" cy="33.085" r="2.205" fill="#5e5e5e"/><circle cx="121.30499999999999" cy="33.085" r="2.205" fill="#f2d1ff"/><circle cx="143.365" cy="33.085" r="2.205" fill="#383838"/><circle cx="165.41500000000002" cy="33.085" r="2.205" fill="#e4a1ff"/><circle cx="187.47500000000002" cy="33.085" r="2.205" fill="#d978ff"/><circle cx="209.525" cy="33.085" r="2.205" fill="#cfcfcf"/><circle cx="231.585" cy="33.085" r="2.205" fill="#515151"/><circle cx="253.63500000000002" cy="33.085" r="2.205" fill="#fbf0ff"/><circle cx="275.695" cy="33.085" r="2.205" fill="#ecbcff"/><circle cx="297.745" cy="33.085" r="2.205" fill="#e9b1ff"/><circle cx="319.805" cy="33.085" r="2.205" fill="#7b7b7b"/><circle cx="341.865" cy="33.085" r="2.205" fill="#ecbcff"/><circle cx="363.91499999999996" cy="33.085" r="2.205" fill="#b8b8b8"/><circle cx="385.97499999999997" cy="33.085" r="2.205" fill="#767676"/><circle cx="11.025" cy="55.135" r="2.205" fill="#424242"/><circle cx="33.085" cy="55.135" r="2.205" fill="#e29aff"/><circle cx="55.135" cy="55.135" r="2.205" fill="#eaeaea"/><circle cx="77.195" cy="55.135" r="2.205" fill="#ecbbff"/><circle cx="99.245" cy="55.135" r="2.205" fill="#a3a3a3"/><circle cx="121.30499999999999" cy="55.135" r="2.205" fill="#da7eff"/><circle cx="143.365" cy="55.135" r="2.205" fill="#c941ff"/><circle cx="165.41500000000002" cy="55.135" r="2.205" fill="#fcf4ff"/><circle cx="187.47500000000002" cy="55.135" r="2.205" fill="#757575"/><circle cx="209.525" cy="55.135" r="2.205" fill="#c638ff"/><circle cx="231.585" cy="55.135" r="2.205" fill="#606060"/><circle cx="253.63500000000002" cy="55.135" r="2.205" fill="#525252"/><circle cx="275.695" cy="55.135" r="2.205" fill="#f0f0f0"/><circle cx="297.745" cy="55.135" r="2.205" fill="#d979ff"/><circle cx="319.805" cy="55.135" r="2.205" fill="#d56aff"/><circle cx="341.865" cy="55.135" r="2.205" fill="#dbdbdb"/><circle cx="363.91499999999996" cy="55.135" r="2.205" fill="#ca45ff"/><circle cx="385.97499999999997" cy="55.135" r="2.205" fill="#838383"/><circle cx="11.025" cy="77.195" r="2.205" fill="#e5a4ff"/><circle cx="33.085" cy="77.195" r="2.205" fill="#3e3e3e"/><circle cx="55.135" cy="77.195" r="2.205" fill="#858585"/><circle cx="77.195" cy="77.195" r="2.205" fill="#fefdff"/><circle cx="99.245" cy="77.195" r="2.205" fill="#e39cff"/><circle cx="121.30499999999999" cy="77.195" r="2.205" fill="#9a9a9a"/><circle cx="143.365" cy="77.195" r="2.205" fill="#d978ff"/><circle cx="165.41500000000002" cy="77.195" r="2.205" fill="#edc0ff"/><circle cx="187.47500000000002" cy="77.195" r="2.205" fill="#fcf3ff"/><circle cx="209.525" cy="77.195" r="2.205" fill="#c638ff"/><circle cx="231.585" cy="77.195" r="2.205" fill="#828282"/><circle cx="253.63500000000002" cy="77.195" r="2.205" fill="#c636ff"/><circle cx="275.695" cy="77.195" r="2.205" fill="#d774ff"/><circle cx="297.745" cy="77.195" r="2.205" fill="#c3c3c3"/><circle cx="319.805" cy="77.195" r="2.205" fill="#cd50ff"/><circle cx="341.865" cy="77.195" r="2.205" fill="#de8bff"/><circle cx="363.91499999999996" cy="77.195" r="2.205" fill="#e39dff"/><circle cx="385.97499999999997" cy="77.195" r="2.205" fill="#cf56ff"/><circle cx="11.025" cy="99.245" r="2.205" fill="#585858"/><circle cx="33.085" cy="99.245" r="2.205" fill="#f6e0ff"/><circle cx="55.135" cy="99.245" r="2.205" fill="#eec4ff"/><circle cx="77.195" cy="99.245" r="2.205" fill="#dadada"/><circle cx="99.245" cy="99.245" r="2.205" fill="#979797"/><circle cx="121.30499999999999" cy="99.245" r="2.205" fill="#fbf2ff"/><circle cx="143.365" cy="99.245" r="2.205" fill="#e39eff"/><circle cx="165.41500000000002" cy="99.245" r="2.205" fill="#f7e4ff"/><circle cx="187.47500000000002" cy="99.245" r="2.205" fill="#e6a6ff"/><circle cx="209.525" cy="99.245" r="2.205" fill="#dd89ff"/><circle cx="231.585" cy="99.245" r="2.205" fill="#d66fff"/><circle cx="253.63500000000002" cy="99.245" r="2.205" fill="#a3a3a3"/><circle cx="275.695" cy="99.245" r="2.205" fill="#e5a2ff"/><circle cx="297.745" cy="99.245" r="2.205" fill="#999999"/><circle cx="319.805" cy="99.245" r="2.205" fill="#d0d0d0"/><circle cx="341.865" cy="99.245" r="2.205" fill="#f0cbff"/><circle cx="363.91499999999996" cy="99.245" r="2.205" fill="#fdf9ff"/><circle cx="385.97499999999997" cy="99.245" r="2.205" fill="#a0a0a0"/><circle cx="11.025" cy="121.30499999999999" r="2.205" fill="#cecece"/><circle cx="33.085" cy="121.30499999999999" r="2.205" fill="#f8e6ff"/><circle cx="55.135" cy="121.30499999999999" r="2.205" fill="#db80ff"/><circle cx="77.195" cy="121.30499999999999" r="2.205" fill="#979797"/><circle cx="99.245" cy="121.30499999999999" r="2.205" fill="#cb47ff"/><circle cx="121.30499999999999" cy="121.30499999999999" r="2.205" fill="#da7eff"/><circle cx="143.365" cy="121.30499999999999" r="2.205" fill="#ebb9ff"/><circle cx="165.41500000000002" cy="121.30499999999999" r="2.205" fill="#e39dff"/><circle cx="187.47500000000002" cy="121.30499999999999" r="2.205" fill="#5b5b5b"/><circle cx="209.525" cy="121.30499999999999" r="2.205" fill="#717171"/><circle cx="231.585" cy="121.30499999999999" r="2.205" fill="#d66fff"/><circle cx="253.63500000000002" cy="121.30499999999999" r="2.205" fill="#e39cff"/><circle cx="275.695" cy="121.30499999999999" r="2.205" fill="#979797"/><circle cx="297.745" cy="121.30499999999999" r="2.205" fill="#e0e0e0"/><circle cx="319.805" cy="121.30499999999999" r="2.205" fill="#717171"/><circle cx="341.865" cy="121.30499999999999" r="2.205" fill="#fefaff"/><circle cx="363.91499999999996" cy="121.30499999999999" r="2.205" fill="#cc4bff"/><circle cx="385.97499999999997" cy="121.30499999999999" r="2.205" fill="#797979"/><circle cx="11.025" cy="143.365" r="2.205" fill="#383838"/><circle cx="33.085" cy="143.365" r="2.205" fill="#dadada"/><circle cx="55.135" cy="143.365" r="2.205" fill="#cd50ff"/><circle cx="77.195" cy="143.365" r="2.205" fill="#e6a7ff"/><circle cx="99.245" cy="143.365" r="2.205" fill="#c940ff"/><circle cx="121.30499999999999" cy="143.365" r="2.205" fill="#959595"/><circle cx="143.365" cy="143.365" r="2.205" fill="#ebb7ff"/><circle cx="165.41500000000002" cy="143.365" r="2.205" fill="#f9e9ff"/><circle cx="187.47500000000002" cy="143.365" r="2.205" fill="#c83cff"/><circle cx="209.525" cy="143.365" r="2.205" fill="#e8e8e8"/><circle cx="231.585" cy="143.365" r="2.205" fill="#f4d8ff"/><circle cx="253.63500000000002" cy="143.365" r="2.205" fill="#e4a0ff"/><circle cx="275.695" cy="143.365" r="2.205" fill="#e5a4ff"/><circle cx="297.745" cy="143.365" r="2.205" fill="#dbdbdb"/><circle cx="319.805" cy="143.365" r="2.205" fill="#282828"/><circle cx="341.865" cy="143.365" r="2.205" fill="#2a2a2a"/><circle cx="363.91499999999996" cy="143.365" r="2.205" fill="#c9c9c9"/><circle cx="385.97499999999997" cy="143.365" r="2.205" fill="#f9f9f9"/><circle cx="11.025" cy="165.41500000000002" r="2.205" fill="#3a3a3a"/><circle cx="33.085" cy="165.41500000000002" r="2.205" fill="#e39bff"/><circle cx="55.135" cy="165.41500000000002" r="2.205" fill="#fdf8ff"/><circle cx="77.195" cy="165.41500000000002" r="2.205" fill="#d466ff"/><circle cx="99.245" cy="165.41500000000002" r="2.205" fill="#f7e3ff"/><circle cx="121.30499999999999" cy="165.41500000000002" r="2.205" fill="#c73bff"/><circle cx="143.365" cy="165.41500000000002" r="2.205" fill="#db81ff"/><circle cx="165.41500000000002" cy="165.41500000000002" r="2.205" fill="#8d8d8d"/><circle cx="187.47500000000002" cy="165.41500000000002" r="2.205" fill="#454545"/><circle cx="209.525" cy="165.41500000000002" r="2.205" fill="#a0a0a0"/><circle cx="231.585" cy="165.41500000000002" r="2.205" fill="#a6a6a6"/><circle cx="253.63500000000002" cy="165.41500000000002" r="2.205" fill="#efc7ff"/><circle cx="275.695" cy="165.41500000000002" r="2.205" fill="#272727"/><circle cx="297.745" cy="165.41500000000002" r="2.205" fill="#faecff"/><circle cx="319.805" cy="165.41500000000002" r="2.205" fill="#b2b2b2"/><circle cx="341.865" cy="165.41500000000002" r="2.205" fill="#d66eff"/><circle cx="363.91499999999996" cy="165.41500000000002" r="2.205" fill="#3b3b3b"/><circle cx="385.97499999999997" cy="165.41500000000002" r="2.205" fill="#e5e5e5"/><circle cx="11.025" cy="187.47500000000002" r="2.205" fill="#8f8f8f"/><circle cx="33.085" cy="187.47500000000002" r="2.205" fill="#2b2b2b"/><circle cx="55.135" cy="187.47500000000002" r="2.205" fill="#f4f4f4"/><circle cx="77.195" cy="187.47500000000002" r="2.205" fill="#909090"/><circle cx="99.245" cy="187.47500000000002" r="2.205" fill="#d365ff"/><circle cx="121.30499999999999" cy="187.47500000000002" r="2.205" fill="#d364ff"/><circle cx="143.365" cy="187.47500000000002" r="2.205" fill="#474747"/><circle cx="165.41500000000002" cy="187.47500000000002" r="2.205" fill="#d469ff"/><circle cx="187.47500000000002" cy="187.47500000000002" r="2.205" fill="#e197ff"/><circle cx="209.525" cy="187.47500000000002" r="2.205" fill="#adadad"/><circle cx="231.585" cy="187.47500000000002" r="2.205" fill="#cf57ff"/><circle cx="253.63500000000002" cy="187.47500000000002" r="2.205" fill="#c942ff"/><circle cx="275.695" cy="187.47500000000002" r="2.205" fill="#262626"/><circle cx="297.745" cy="187.47500000000002" r="2.205" fill="#959595"/><circle cx="319.805" cy="187.47500000000002" r="2.205" fill="#db82ff"/><circle cx="341.865" cy="187.47500000000002" r="2.205" fill="#f8e7ff"/><circle cx="363.91499999999996" cy="187.47500000000002" r="2.205" fill="#dc83ff"/><circle cx="385.97499999999997" cy="187.47500000000002" r="2.205" fill="#cb46ff"/><circle cx="11.025" cy="209.525" r="2.205" fill="#b4b4b4"/><circle cx="33.085" cy="209.525" r="2.205" fill="#363636"/><circle cx="55.135" cy="209.525" r="2.205" fill="#d874ff"/><circle cx="77.195" cy="209.525" r="2.205" fill="#dbdbdb"/><circle cx="99.245" cy="209.525" r="2.205" fill="#e3e3e3"/><circle cx="121.30499999999999" cy="209.525" r="2.205" fill="#f0c9ff"/><circle cx="143.365" cy="209.525" r="2.205" fill="#969696"/><circle cx="165.41500000000002" cy="209.525" r="2.205" fill="#d058ff"/><circle cx="187.47500000000002" cy="209.525" r="2.205" fill="#808080"/><circle cx="209.525" cy="209.525" r="2.205" fill="#e9e9e9"/><circle cx="231.585" cy="209.525" r="2.205" fill="#ca45ff"/><circle cx="253.63500000000002" cy="209.525" r="2.205" fill="#404040"/><circle cx="275.695" cy="209.525" r="2.205" fill="#e8adff"/><circle cx="297.745" cy="209.525" r="2.205" fill="#e49fff"/><circle cx="319.805" cy="209.525" r="2.205" fill="#ca44ff"/><circle cx="341.865" cy="209.525" r="2.205" fill="#a9a9a9"/><circle cx="363.91499999999996" cy="209.525" r="2.205" fill="#bababa"/><circle cx="385.97499999999997" cy="209.525" r="2.205" fill="#f0f0f0"/><circle cx="11.025" cy="231.585" r="2.205" fill="#d877ff"/><circle cx="33.085" cy="231.585" r="2.205" fill="#faeeff"/><circle cx="55.135" cy="231.585" r="2.205" fill="#292929"/><circle cx="77.195" cy="231.585" r="2.205" fill="#c9c9c9"/><circle cx="99.245" cy="231.585" r="2.205" fill="#ca45ff"/><circle cx="121.30499999999999" cy="231.585" r="2.205" fill="#2b2b2b"/><circle cx="143.365" cy="231.585" r="2.205" fill="#d876ff"/><circle cx="165.41500000000002" cy="231.585" r="2.205" fill="#afafaf"/><circle cx="187.47500000000002" cy="231.585" r="2.205" fill="#c739ff"/><circle cx="209.525" cy="231.585" r="2.205" fill="#353535"/><circle cx="231.585" cy="231.585" r="2.205" fill="#e7abff"/><circle cx="253.63500000000002" cy="231.585" r="2.205" fill="#edc0ff"/><circle cx="275.695" cy="231.585" r="2.205" fill="#d774ff"/><circle cx="297.745" cy="231.585" r="2.205" fill="#ecbbff"/><circle cx="319.805" cy="231.585" r="2.205" fill="#e091ff"/><circle cx="341.865" cy="231.585" r="2.205" fill="#969696"/><circle cx="363.91499999999996" cy="231.585" r="2.205" fill="#c941ff"/><circle cx="385.97499999999997" cy="231.585" r="2.205" fill="#ce54ff"/><circle cx="11.025" cy="253.63500000000002" r="2.205" fill="#c73aff"/><circle cx="33.085" cy="253.63500000000002" r="2.205" fill="#c638ff"/><circle cx="55.135" cy="253.63500000000002" r="2.205" fill="#fbf0ff"/><circle cx="77.195" cy="253.63500000000002" r="2.205" fill="#eec3ff"/><circle cx="99.245" cy="253.63500000000002" r="2.205" fill="#333333"/><circle cx="121.30499999999999" cy="253.63500000000002" r="2.205" fill="#f0ccff"/><circle cx="143.365" cy="253.63500000000002" r="2.205" fill="#626262"/><circle cx="165.41500000000002" cy="253.63500000000002" r="2.205" fill="#2d2d2d"/><circle cx="187.47500000000002" cy="253.63500000000002" r="2.205" fill="#fbf0ff"/><circle cx="209.525" cy="253.63500000000002" r="2.205" fill="#292929"/><circle cx="231.585" cy="253.63500000000002" r="2.205" fill="#8a8a8a"/><circle cx="253.63500000000002" cy="253.63500000000002" r="2.205" fill="#de8aff"/><circle cx="275.695" cy="253.63500000000002" r="2.205" fill="#2f2f2f"/><circle cx="297.745" cy="253.63500000000002" r="2.205" fill="#ececec"/><circle cx="319.805" cy="253.63500000000002" r="2.205" fill="#d261ff"/><circle cx="341.865" cy="253.63500000000002" r="2.205" fill="#cf55ff"/><circle cx="363.91499999999996" cy="253.63500000000002" r="2.205" fill="#4d4d4d"/><circle cx="385.97499999999997" cy="253.63500000000002" r="2.205" fill="#cb46ff"/><circle cx="11.025" cy="275.695" r="2.205" fill="#8f8f8f"/><circle cx="33.085" cy="275.695" r="2.205" fill="#d56dff"/><circle cx="55.135" cy="275.695" r="2.205" fill="#c83eff"/><circle cx="77.195" cy="275.695" r="2.205" fill="#eab5ff"/><circle cx="99.245" cy="275.695" r="2.205" fill="#f7e3ff"/><circle cx="121.30499999999999" cy="275.695" r="2.205" fill="#c941ff"/><circle cx="143.365" cy="275.695" r="2.205" fill="#c942ff"/><circle cx="165.41500000000002" cy="275.695" r="2.205" fill="#f4f4f4"/><circle cx="187.47500000000002" cy="275.695" r="2.205" fill="#c8c8c8"/><circle cx="209.525" cy="275.695" r="2.205" fill="#f1cfff"/><circle cx="231.585" cy="275.695" r="2.205" fill="#777777"/><circle cx="253.63500000000002" cy="275.695" r="2.205" fill="#3c3c3c"/><circle cx="275.695" cy="275.695" r="2.205" fill="#efc7ff"/><circle cx="297.745" cy="275.695" r="2.205" fill="#f9eaff"/><circle cx="319.805" cy="275.695" r="2.205" fill="#727272"/><circle cx="341.865" cy="275.695" r="2.205" fill="#696969"/><circle cx="363.91499999999996" cy="275.695" r="2.205" fill="#e2e2e2"/><circle cx="385.97499999999997" cy="275.695" r="2.205" fill="#e8afff"/><circle cx="11.025" cy="297.745" r="2.205" fill="#c739ff"/><circle cx="33.085" cy="297.745" r="2.205" fill="#b0b0b0"/><circle cx="55.135" cy="297.745" r="2.205" fill="#c8c8c8"/><circle cx="77.195" cy="297.745" r="2.205" fill="#7d7d7d"/><circle cx="99.245" cy="297.745" r="2.205" fill="#aeaeae"/><circle cx="121.30499999999999" cy="297.745" r="2.205" fill="#df90ff"/><circle cx="143.365" cy="297.745" r="2.205" fill="#c941ff"/><circle cx="165.41500000000002" cy="297.745" r="2.205" fill="#747474"/><circle cx="187.47500000000002" cy="297.745" r="2.205" fill="#3e3e3e"/><circle cx="209.525" cy="297.745" r="2.205" fill="#2f2f2f"/><circle cx="231.585" cy="297.745" r="2.205" fill="#f0c9ff"/><circle cx="253.63500000000002" cy="297.745" r="2.205" fill="#e5a4ff"/><circle cx="275.695" cy="297.745" r="2.205" fill="#f9eaff"/><circle cx="297.745" cy="297.745" r="2.205" fill="#d877ff"/><circle cx="319.805" cy="297.745" r="2.205" fill="#f1ceff"/><circle cx="341.865" cy="297.745" r="2.205" fill="#d56dff"/><circle cx="363.91499999999996" cy="297.745" r="2.205" fill="#292929"/><circle cx="385.97499999999997" cy="297.745" r="2.205" fill="#eeeeee"/><circle cx="11.025" cy="319.805" r="2.205" fill="#444444"/><circle cx="33.085" cy="319.805" r="2.205" fill="#f8f8f8"/><circle cx="55.135" cy="319.805" r="2.205" fill="#969696"/><circle cx="77.195" cy="319.805" r="2.205" fill="#6d6d6d"/><circle cx="99.245" cy="319.805" r="2.205" fill="#fafafa"/><circle cx="121.30499999999999" cy="319.805" r="2.205" fill="#f8f8f8"/><circle cx="143.365" cy="319.805" r="2.205" fill="#292929"/><circle cx="165.41500000000002" cy="319.805" r="2.205" fill="#848484"/><circle cx="187.47500000000002" cy="319.805" r="2.205" fill="#eab6ff"/><circle cx="209.525" cy="319.805" r="2.205" fill="#c0c0c0"/><circle cx="231.585" cy="319.805" r="2.205" fill="#707070"/><circle cx="253.63500000000002" cy="319.805" r="2.205" fill="#b2b2b2"/><circle cx="275.695" cy="319.805" r="2.205" fill="#494949"/><circle cx="297.745" cy="319.805" r="2.205" fill="#8e8e8e"/><circle cx="319.805" cy="319.805" r="2.205" fill="#f7f7f7"/><circle cx="341.865" cy="319.805" r="2.205" fill="#c6c6c6"/><circle cx="363.91499999999996" cy="319.805" r="2.205" fill="#313131"/><circle cx="385.97499999999997" cy="319.805" r="2.205" fill="#d363ff"/><circle cx="11.025" cy="341.865" r="2.205" fill="#fffeff"/><circle cx="33.085" cy="341.865" r="2.205" fill="#df8eff"/><circle cx="55.135" cy="341.865" r="2.205" fill="#df8eff"/><circle cx="77.195" cy="341.865" r="2.205" fill="#ce53ff"/><circle cx="99.245" cy="341.865" r="2.205" fill="#e299ff"/><circle cx="121.30499999999999" cy="341.865" r="2.205" fill="#f9eaff"/><circle cx="143.365" cy="341.865" r="2.205" fill="#f2d1ff"/><circle cx="165.41500000000002" cy="341.865" r="2.205" fill="#d9d9d9"/><circle cx="187.47500000000002" cy="341.865" r="2.205" fill="#a6a6a6"/><circle cx="209.525" cy="341.865" r="2.205" fill="#eab7ff"/><circle cx="231.585" cy="341.865" r="2.205" fill="#9c9c9c"/><circle cx="253.63500000000002" cy="341.865" r="2.205" fill="#434343"/><circle cx="275.695" cy="341.865" r="2.205" fill="#f6f6f6"/><circle cx="297.745" cy="341.865" r="2.205" fill="#faecff"/><circle cx="319.805" cy="341.865" r="2.205" fill="#aaaaaa"/><circle cx="341.865" cy="341.865" r="2.205" fill="#4d4d4d"/><circle cx="363.91499999999996" cy="341.865" r="2.205" fill="#5b5b5b"/><circle cx="385.97499999999997" cy="341.865" r="2.205" fill="#acacac"/><circle cx="11.025" cy="363.91499999999996" r="2.205" fill="#3b3b3b"/><circle cx="33.085" cy="363.91499999999996" r="2.205" fill="#292929"/><circle cx="55.135" cy="363.91499999999996" r="2.205" fill="#3f3f3f"/><circle cx="77.195" cy="363.91499999999996" r="2.205" fill="#838383"/><circle cx="99.245" cy="363.91499999999996" r="2.205" fill="#353535"/><circle cx="121.30499999999999" cy="363.91499999999996" r="2.205" fill="#5e5e5e"/><circle cx="143.365" cy="363.91499999999996" r="2.205" fill="#fcfcfc"/><circle cx="165.41500000000002" cy="363.91499999999996" r="2.205" fill="#4f4f4f"/><circle cx="187.47500000000002" cy="363.91499999999996" r="2.205" fill="#eaeaea"/><circle cx="209.525" cy="363.91499999999996" r="2.205" fill="#cccccc"/><circle cx="231.585" cy="363.91499999999996" r="2.205" fill="#ababab"/><circle cx="253.63500000000002" cy="363.91499999999996" r="2.205" fill="#ca43ff"/><circle cx="275.695" cy="363.91499999999996" r="2.205" fill="#ce52ff"/><circle cx="297.745" cy="363.91499999999996" r="2.205" fill="#2f2f2f"/><circle cx="319.805" cy="363.91499999999996" r="2.205" fill="#c7c7c7"/><circle cx="341.865" cy="363.91499999999996" r="2.205" fill="#faefff"/><circle cx="363.91499999999996" cy="363.91499999999996" r="2.205" fill="#777777"/><circle cx="385.97499999999997" cy="363.91499999999996" r="2.205" fill="#d772ff"/><circle cx="11.025" cy="385.97499999999997" r="2.205" fill="#d66eff"/><circle cx="33.085" cy="385.97499999999997" r="2.205" fill="#898989"/><circle cx="55.135" cy="385.97499999999997" r="2.205" fill="#edbfff"/><circle cx="77.195" cy="385.97499999999997" r="2.205" fill="#505050"/><circle cx="99.245" cy="385.97499999999997" r="2.205" fill="#bfbfbf"/><circle cx="121.30499999999999" cy="385.97499999999997" r="2.205" fill="#c8c8c8"/><circle cx="143.365" cy="385.97499999999997" r="2.205" fill="#f3d6ff"/><circle cx="165.41500000000002" cy="385.97499999999997" r="2.205" fill="#656565"/><circle cx="187.47500000000002" cy="385.97499999999997" r="2.205" fill="#5d5d5d"/><circle cx="209.525" cy="385.97499999999997" r="2.205" fill="#d774ff"/><circle cx="231.585" cy="385.97499999999997" r="2.205" fill="#d3d3d3"/><circle cx="253.63500000000002" cy="385.97499999999997" r="2.205" fill="#f3d6ff"/><circle cx="275.695" cy="385.97499999999997" r="2.205" fill="#c1c1c1"/><circle cx="297.745" cy="385.97499999999997" r="2.205" fill="#c9c9c9"/><circle cx="319.805" cy="385.97499999999997" r="2.205" fill="#f2f2f2"/><circle cx="341.865" cy="385.97499999999997" r="2.205" fill="#f0c9ff"/><circle cx="363.91499999999996" cy="385.97499999999997" r="2.205" fill="#fefbff"/><circle cx="385.97499999999997" cy="385.97499999999997" r="2.205" fill="#8b8b8b"/></g></svg>